<?xml version="1.0" standalone="no"?><!DOCTYPE svg PUBLIC "-//W3C//DTD SVG 1.1//EN" "http://www.w3.org/Graphics/SVG/1.1/DTD/svg11.dtd"><svg t="1702565798234" class="icon" viewBox="0 0 1024 1024" version="1.1" xmlns="http://www.w3.org/2000/svg" p-id="2389" xmlns:xlink="http://www.w3.org/1999/xlink" width="200" height="200"><path d="M551.563636 46.545455v71.77309c194.606545 19.316364 347.741091 179.665455 355.746909 377.390546H977.454545v55.854545h-71.77309c-18.548364 186.926545-167.191273 335.569455-354.117819 354.117819V977.454545h-55.854545v-70.144C297.984 899.304727 137.634909 746.170182 118.318545 551.563636H46.545455v-55.854545h70.144C125.021091 290.164364 290.164364 125.021091 495.709091 116.689455V46.545455h55.854545zM172.590545 495.709091H302.545455v55.854545H174.498909c18.990545 163.723636 154.368 291.956364 321.233455 299.845819L495.709091 721.454545h55.854545v128.046546c156.043636-18.106182 279.831273-141.893818 297.937455-297.914182L721.454545 551.563636v-55.854545h129.95491C843.52 328.843636 715.287273 193.512727 551.563636 174.522182L551.563636 302.545455h-55.854545V172.590545c-174.685091 8.238545-314.88 148.433455-323.118546 323.141819z" fill="#000000" p-id="2390"></path></svg>