<?xml version="1.0" standalone="yes"?>
<svg xmlns="http://www.w3.org/2000/svg" width="728" height="728">
<path style="fill:#252525; stroke:none;" d="M0 0L0 728L728 728L728 0L0 0z"/>
<path style="fill:#e3e3e3; stroke:none;" d="M317 283C319.877 260.234 322.697 239.462 345 227.312C375.045 210.945 418.778 234.701 418.821 270C418.843 287.977 407.198 302.298 397.116 316C381.036 337.851 363.329 359.675 349.453 383C334.167 408.695 339 441.331 339 470L396 470C396 457.309 395.629 444.623 396.83 432C397.396 426.056 396.909 420.651 399.338 415C403.294 405.796 409.766 398.045 415.576 390C424.051 378.263 432.56 366.444 441.425 355C450.227 343.638 459.825 331.979 466.181 319.001C474.805 301.389 477.238 281.383 475.91 262C474.844 246.419 470.457 229.775 462.637 216.17C424.704 150.172 323.913 145.896 279.746 207.001C267.81 223.514 260.008 243.446 260 264C259.998 268.679 258.14 278.656 261.742 282.258C264.821 285.337 272.051 284 276 284C289.418 284 303.781 285.454 317 283M339 568L396 568L396 510L356 510C352.071 510 343.85 508.456 340.603 511.028C337.4 513.565 339 522.368 339 526L339 568z"/>
</svg>
